<svg id="Layer_1" enable-background="new 0 0 512 512" height="512" viewBox="0 0 512 512" width="512" xmlns="http://www.w3.org/2000/svg"><g><path d="m475.569 0h-150.881c-20.088 0-36.431 16.343-36.431 36.431v118.425c0 20.088 16.343 36.431 36.431 36.431h17.365v19.258c0 6.286 7.624 9.891 12.462 5.624l28.198-24.882h92.855c20.088 0 36.431-16.343 36.431-36.431v-118.425c.001-20.088-16.342-36.431-36.43-36.431zm21.431 154.855c0 11.817-9.614 21.431-21.431 21.431h-95.691c-1.827 0-3.592.667-4.962 1.876l-17.862 15.762v-10.138c0-4.143-3.357-7.5-7.5-7.5h-24.865c-11.816 0-21.431-9.613-21.431-21.431v-118.424c0-11.817 9.614-21.431 21.431-21.431h150.881c11.816 0 21.43 9.613 21.43 21.431z"/><path d="m207.568 68.867c1.915 0 3.831-.729 5.295-2.188l21.394-21.328c6.867-6.847-3.722-17.468-10.59-10.623l-21.394 21.328c-4.462 4.448-1.009 12.811 5.295 12.811z"/><path d="m182.957 58.544c3.753.323 7.803-3.078 8.136-6.806l2.679-30.091c.86-9.659-14.079-10.989-14.941-1.33l-2.679 30.091c-.368 4.126 2.679 7.769 6.805 8.136z"/><path d="m211.822 85.288c.32 3.721 4.362 7.148 8.115 6.83l30.099-2.587c9.665-.83 8.373-15.746-1.285-14.945l-30.099 2.587c-4.127.354-7.184 3.988-6.83 8.115z"/><path d="m451.936 305.752 21.395-21.329c6.868-6.847-3.722-17.468-10.59-10.623l-21.395 21.329c-6.869 6.848 3.724 17.466 10.59 10.623z"/><path d="m422.703 297.646c3.841 0 7.114-2.936 7.462-6.835l2.68-30.091c.86-9.661-14.082-10.986-14.941-1.33l-2.68 30.091c-.353 3.958 3.489 8.165 7.479 8.165z"/><path d="m487.824 313.659-30.099 2.586c-9.474.814-7.943 15.731 1.283 14.945l30.099-2.586c9.665-.83 8.374-15.763-1.283-14.945z"/><path d="m393.484 293.781c-16.359-16.301-42.977-16.301-59.336 0-9.935 9.899-19.869 19.798-29.804 29.697-12.709 12.663-33.389 12.662-46.098 0l-69.992-69.742c-12.544-12.498-12.543-33.358 0-45.856 9.922-9.886 19.844-19.772 29.766-29.658 16.151-16.093 16.155-43.177 0-59.274l-65.934-65.698c-16.359-16.301-42.977-16.3-59.336 0l-14.558 14.505c-24.458 24.369-37.927 56.773-37.927 91.24 0 34.468 13.469 66.871 37.927 91.241l61.509 61.288-10.415 9.19h-92.855c-20.088 0-36.431 16.343-36.431 36.431v118.425c0 20.087 16.343 36.43 36.431 36.43h150.881c20.088 0 36.431-16.343 36.431-36.431v-80.306c34.188 33.258 58.305 66.621 109.142 74.121 9.3 1.482 11.739-13.322 2.354-14.814-23.913-3.8-45.634-14.856-62.813-31.975l-48.682-48.507v-16.944c0-20.088-16.343-36.431-36.431-36.431h-17.365v-19.258c0-6.337-7.711-9.813-12.462-5.624l-6.513 5.747s-62.191-61.968-62.191-61.968c-42.351-40.52-44.63-112.698-5.125-155.788l18.673 18.605c6.87 6.845 17.457-3.781 10.588-10.625l-18.806-18.735 9.226-9.192c10.521-10.482 27.639-10.482 38.16 0l65.935 65.697c10.312 10.274 10.334 27.726 0 38.024l-9.225 9.192-54.718-54.522c-6.868-6.848-17.455 3.78-10.588 10.625l54.68 54.484-9.914 9.879c-18.288 18.222-18.294 48.88 0 67.106l69.992 69.742c18.547 18.48 48.727 18.48 67.273 0l9.952-9.917 103.921 103.548c-14.38 12.569-31.629 21.332-50.309 25.499-9.334 2.083-5.775 16.648 3.266 14.641 23.904-5.332 45.736-17.315 63.137-34.654l14.52-14.467c16.151-16.093 16.155-43.177 0-59.274zm-231.038 41.933h24.865c11.816 0 21.431 9.613 21.431 21.431v118.425c0 11.817-9.614 21.431-21.431 21.431h-150.88c-11.817-.001-21.431-9.614-21.431-21.432v-118.424c0-11.817 9.614-21.431 21.431-21.431h95.691c1.827 0 3.592-.667 4.962-1.876l17.862-15.762v10.138c0 4.142 3.358 7.5 7.5 7.5zm286.385 72.414-9.226 9.191-104.094-103.72 9.226-9.192c10.52-10.481 27.639-10.482 38.16 0l65.935 65.697c10.309 10.274 10.335 27.726-.001 38.024z"/><path d="m455.688 65.21h-111.118c-9.697 0-9.697 15 0 15h111.118c9.698 0 9.698-15 0-15z"/><path d="m415.688 111.229h-71.118c-9.697 0-9.697 15 0 15h71.118c9.698 0 9.698-15 0-15z"/><path d="m48.812 395.369c0 4.143 3.357 7.5 7.5 7.5h111.118c9.697 0 9.697-15 0-15h-111.118c-4.143 0-7.5 3.358-7.5 7.5z"/><path d="m127.43 433.888h-71.118c-9.697 0-9.697 15 0 15h71.118c9.697 0 9.697-15 0-15z"/></g></svg>